<mxfile host="app.diagrams.net" modified="2023-10-04T19:59:04.304Z" agent="Mozilla/5.0 (Macintosh; Intel Mac OS X 10_15_7) AppleWebKit/537.36 (KHTML, like Gecko) Chrome/117.0.0.0 Safari/537.36" version="22.0.2" etag="Lhif4IbuSGXBbPjJ4E5g" type="github">
  <diagram name="Page-1" id="KlEcViwjfXChiMUFxEQC">
    <mxGraphModel>
      <root>
        <mxCell id="0" />
        <mxCell id="1" parent="0" />
      </root>
    </mxGraphModel>
  </diagram>
</mxfile>
